<svg xmlns="http://www.w3.org/2000/svg" width="72" height="25" viewBox="0 0 72 25" fill="none">
<path d="M0 18.5561C0 18.2344 0.0943222 18.0956 0.233031 17.8127L1.99186 14.4781C2.91843 12.7193 3.01276 11.4709 1.99186 9.52341C0.210837 6.17223 0 6.00577 0 5.52307V1.75019C0.160902 0.313166 1.64231 -0.408121 2.7076 0.241036C7.17404 2.53251 7.96188 3.04295 10.2811 2.99857C12.8278 2.99857 13.4325 2.53805 17.899 0.241036C18.9643 -0.408121 20.4457 0.307617 20.6066 1.74464V5.51752C20.6066 6.00577 20.3958 6.16668 18.6147 9.52341C17.5938 11.4709 17.6882 12.7193 18.6147 14.4781L20.3735 17.8127C20.5122 18.0901 20.6066 18.2288 20.6066 18.5561V22.3069C20.6066 23.8826 19.0308 24.4152 17.899 23.8326C13.4325 21.5412 12.5948 21.0529 10.3255 21.0529C8.19491 21.0529 7.17404 21.3303 2.7076 23.8326C1.57573 24.4596 0 23.877 0 22.3069V18.5561ZM1.59793 18.484C1.43702 18.7836 1.71444 19.0611 1.99186 18.8779C6.76344 16.4478 7.52357 16.0094 10.3033 16.0094C13.083 16.0094 13.8487 16.5643 18.6147 18.8779C18.8921 19.0166 19.1695 18.7836 19.0086 18.484L17.3164 15.1716C16.412 13.4128 16.068 11.8149 16.068 10.217C16.068 8.61903 16.4842 7.02114 17.3164 5.32887L19.0086 1.92773C19.1474 1.67251 18.8921 1.41729 18.6147 1.57819C17.7825 1.97212 17.0612 2.32167 16.4398 2.59909C13.477 4.00837 12.4782 4.49662 10.2811 4.49662C8.10613 4.47443 7.10747 4.00837 4.10023 2.57689C3.50101 2.27728 2.80192 1.94993 1.99186 1.58374C1.71444 1.42283 1.45922 1.67806 1.59793 1.93329L3.29018 5.33442C4.12243 7.0267 4.53855 8.69115 4.53855 10.2225C4.53855 11.7539 4.18901 13.4184 3.29018 15.1772L1.59793 18.4896V18.484ZM5.99775 9.84523C5.99775 8.73557 6.69131 7.80898 7.71224 7.80898C8.73311 7.80898 9.3767 8.73557 9.3767 9.84523C9.3767 10.9549 8.70535 11.8815 7.71224 11.8815C6.71907 11.8815 5.99775 10.9771 5.99775 9.84523ZM14.6587 9.82302L14.2426 10.1005C14.0096 10.3113 13.7821 10.2614 13.5491 10.0061C13.3383 9.84523 13.0386 9.75089 12.7612 9.75089C12.506 9.75089 12.2285 9.84523 12.0177 9.98393C11.7847 10.1948 11.5295 10.2392 11.3464 10.1005L10.9081 9.75089C10.6528 9.56783 10.6085 9.29037 10.8137 9.05739C11.302 8.45262 11.9234 8.15301 12.8056 8.15301C13.5934 8.15301 14.287 8.52475 14.7032 9.10176C14.914 9.33479 14.914 9.65661 14.6587 9.81747V9.82302Z" fill="black"/>
<path d="M42.1479 5.44813C42.3133 5.44813 42.4331 5.56794 42.4331 5.73329V6.25806C42.4331 8.56798 41.1954 10.5186 39.2904 11.568C41.1954 12.6174 42.4331 14.5681 42.4331 16.878V17.4027C42.4331 17.5681 42.3133 17.6879 42.1479 17.6879H39.53C39.3646 17.6879 39.2448 17.5681 39.2448 17.4027V16.878C39.2448 15.0928 37.8189 13.6155 36.0794 13.5928C34.3683 13.5928 32.9139 15.0928 32.9139 16.878V17.4027C32.9139 17.5681 32.7941 17.6879 32.6287 17.6879H30.0108C29.8454 17.6879 29.7256 17.5681 29.7256 17.4027V16.878C29.7256 14.5681 30.9633 12.6174 32.8454 11.568C30.9633 10.5186 29.7256 8.56798 29.7256 6.25806V5.73329C29.7256 5.56794 29.8454 5.44813 30.0108 5.44813H32.6287C32.7941 5.44813 32.9139 5.56794 32.9139 5.73329V6.25806C32.9139 8.04327 34.3683 9.54326 36.0794 9.54326C37.8189 9.52043 39.2448 8.04327 39.2448 6.25806V5.73329C39.2448 5.56794 39.3646 5.44813 39.53 5.44813H42.1479ZM50.1956 5.44813C50.361 5.44813 50.4807 5.56794 50.4807 5.73329V8.23145C50.4807 8.39686 50.361 8.51661 50.1956 8.51661H47.1955V11.4939C47.1955 13.2562 48.5529 14.7335 50.1956 14.8247C50.361 14.8247 50.4807 14.9445 50.4807 15.1099V17.608C50.4807 17.7735 50.361 17.8932 50.1956 17.8932C46.6993 17.7962 44.0072 15.0129 44.0072 11.4882V3.84545C44.0072 3.77701 44.0528 3.68004 44.1042 3.62871L44.127 3.6059L46.745 2.10587C46.9617 1.9861 47.1955 2.1515 47.1955 2.39105V5.43672H50.1956V5.44813ZM63.4563 5.44813C63.6217 5.44813 63.7417 5.56794 63.7417 5.73329V17.397C63.7417 17.5624 63.6217 17.6822 63.4563 17.6822H60.8383C60.6728 17.6822 60.5534 17.5624 60.5534 17.397V16.6613C59.7661 17.4712 58.6938 17.9217 57.3877 17.9217C53.8914 17.9217 51.034 15.0643 51.034 11.568C51.034 8.07175 53.8687 5.21429 57.3877 5.21429C58.6995 5.21429 59.7661 5.66485 60.5534 6.47478V5.739C60.5534 5.57359 60.6728 5.45384 60.8383 5.45384H63.4563V5.44813ZM60.5534 11.5908C60.5301 9.78281 59.0988 8.30559 57.3877 8.28276C55.6766 8.28276 54.2223 9.80564 54.2223 11.5908C54.2223 13.3761 55.6253 14.8532 57.3877 14.8532C59.1501 14.8532 60.5534 13.3988 60.5534 11.5908ZM71.9999 5.49944V7.9976C71.9999 8.16301 71.8806 8.28276 71.7151 8.28276C70.0721 8.37974 68.715 9.85125 68.715 11.6136V17.397C68.715 17.5624 68.5951 17.6822 68.4296 17.6822H65.8116C65.6462 17.6822 65.5268 17.5624 65.5268 17.397V11.6136C65.5268 8.08887 68.2188 5.30555 71.7151 5.20858C71.8806 5.20858 71.9999 5.32838 71.9999 5.49374V5.49944Z" fill="black"/>
</svg>